<svg width="32" height="28" viewBox="0 0 32 28" fill="none" xmlns="http://www.w3.org/2000/svg">
<path d="M26.1582 13.7958H26.7587L15.735 24.8195L6.68198 15.7665H3.89526L15.735 27.6062L29.0527 14.3039C29.412 13.9446 29.7302 13.5597 30.0073 13.1491C30.2844 12.7386 30.5257 12.2972 30.7309 11.8251H26.9896L22.6325 7.48331L15.735 14.3654L10.8082 9.45403L8.42176 11.8251H2.95609C2.62764 11.3016 2.37616 10.7473 2.20167 10.1623C2.02718 9.5772 1.93994 8.97675 1.93994 8.3609C1.93994 7.46792 2.10416 6.63652 2.43262 5.86671C2.76107 5.09689 3.21783 4.42972 3.80288 3.86519C4.38794 3.30066 5.06538 2.85417 5.83519 2.52572C6.605 2.19727 7.44153 2.03304 8.34478 2.03304C9.20697 2.03304 9.97165 2.16647 10.6388 2.43334C11.306 2.70021 11.9218 3.05946 12.4864 3.51108C13.0509 3.9627 13.5898 4.46052 14.103 5.00452C14.6162 5.54852 15.1602 6.11818 15.735 6.7135C16.2892 6.15924 16.8281 5.59984 17.3516 5.03531C17.8751 4.47078 18.4191 3.9627 18.9836 3.51108C19.5481 3.05946 20.1691 2.68995 20.8465 2.40255C21.524 2.11515 22.2835 1.97145 23.1252 1.97145C24.0079 1.97145 24.8342 2.13568 25.604 2.46413C26.3738 2.79259 27.0512 3.24934 27.6363 3.8344C28.2213 4.41946 28.6781 5.09689 29.0066 5.86671C29.335 6.63652 29.5044 7.46792 29.5146 8.3609C29.5146 8.84332 29.4582 9.34113 29.3453 9.85434H31.3622C31.4135 9.608 31.4443 9.36166 31.4546 9.11532C31.4648 8.86898 31.4751 8.62264 31.4854 8.3763C31.4854 7.21644 31.2698 6.12844 30.8387 5.11229C30.4076 4.09614 29.8123 3.20829 29.0527 2.44874C28.2932 1.68919 27.4053 1.09387 26.3892 0.662772C25.373 0.231677 24.285 0.0109973 23.1252 0.000733155C22.2733 0.000733155 21.5137 0.0982428 20.8465 0.293262C20.1794 0.488281 19.5635 0.75515 18.999 1.09387C18.4345 1.43259 17.8905 1.84828 17.367 2.34096C16.8435 2.83364 16.2995 3.36225 15.735 3.92678C15.1705 3.35199 14.6316 2.82338 14.1184 2.34096C13.6052 1.85855 13.0612 1.44798 12.4864 1.10926C11.9116 0.770546 11.2906 0.498545 10.6234 0.293262C9.95625 0.0879786 9.1967 -0.00953102 8.34478 0.000733155C7.19519 0.000733155 6.11232 0.216281 5.09617 0.647376C4.08002 1.07847 3.1973 1.67379 2.44801 2.43334C1.69873 3.19289 1.10341 4.07561 0.662046 5.0815C0.220687 6.08739 7.62939e-06 7.17026 7.62939e-06 8.33011C7.62939e-06 9.32573 0.1745 10.2906 0.523481 11.2246C0.872463 12.1586 1.37028 13.0157 2.01692 13.7958H9.25316L10.8082 12.2254L15.735 17.1676L22.6325 10.2546L26.1582 13.7958Z" fill="#0E9F6E"/>
</svg>
